<mxfile host="app.diagrams.net" agent="Mozilla/5.0 (Windows NT 10.0; Win64; x64) AppleWebKit/537.36 (KHTML, like Gecko) Chrome/135.0.0.0 Safari/537.36 Edg/135.0.0.0" version="26.2.15">
  <diagram name="第 1 页" id="-XyGTuOkuVV5LhC2Fva2">
    <mxGraphModel dx="2058" dy="1146" grid="1" gridSize="10" guides="1" tooltips="1" connect="1" arrows="1" fold="1" page="1" pageScale="1" pageWidth="1200" pageHeight="1600" math="0" shadow="0">
      <root>
        <mxCell id="0" />
        <mxCell id="1" parent="0" />
        <mxCell id="Kn_A5P_9LUzbQNV3I4ui-1" value="开始" style="whiteSpace=wrap;strokeWidth=2;" vertex="1" parent="1">
          <mxGeometry x="104" y="20" width="92" height="54" as="geometry" />
        </mxCell>
        <mxCell id="Kn_A5P_9LUzbQNV3I4ui-2" value="用户选择本地视频文件或打开摄像头" style="whiteSpace=wrap;strokeWidth=2;" vertex="1" parent="1">
          <mxGeometry x="20" y="90" width="260" height="78" as="geometry" />
        </mxCell>
        <mxCell id="Kn_A5P_9LUzbQNV3I4ui-3" value="根据选择的视频源初始化cv2.VideoCapture对象" style="whiteSpace=wrap;strokeWidth=2;" vertex="1" parent="1">
          <mxGeometry x="20.5" y="190" width="260" height="78" as="geometry" />
        </mxCell>
        <mxCell id="Kn_A5P_9LUzbQNV3I4ui-4" value="加载预训练的YOLO模型" style="whiteSpace=wrap;strokeWidth=2;" vertex="1" parent="1">
          <mxGeometry x="37" y="290" width="227" height="54" as="geometry" />
        </mxCell>
        <mxCell id="Kn_A5P_9LUzbQNV3I4ui-5" value="配置模型参数（如置信度阈值）" style="whiteSpace=wrap;strokeWidth=2;" vertex="1" parent="1">
          <mxGeometry x="20.5" y="370" width="260" height="78" as="geometry" />
        </mxCell>
        <mxCell id="Kn_A5P_9LUzbQNV3I4ui-6" value="初始化对象计数器和速度估计器" style="whiteSpace=wrap;strokeWidth=2;" vertex="1" parent="1">
          <mxGeometry x="20" y="470" width="260" height="78" as="geometry" />
        </mxCell>
        <mxCell id="Kn_A5P_9LUzbQNV3I4ui-7" value="设置计数区域和速度计算参数" style="whiteSpace=wrap;strokeWidth=2;" vertex="1" parent="1">
          <mxGeometry x="20.5" y="570" width="260" height="78" as="geometry" />
        </mxCell>
        <mxCell id="Kn_A5P_9LUzbQNV3I4ui-8" value="结束" style="whiteSpace=wrap;strokeWidth=2;" vertex="1" parent="1">
          <mxGeometry x="104.5" y="670" width="92" height="54" as="geometry" />
        </mxCell>
        <mxCell id="Kn_A5P_9LUzbQNV3I4ui-9" value="" style="curved=1;startArrow=none;endArrow=block;exitX=0.5;exitY=1;entryX=0.5;entryY=0;rounded=0;" edge="1" parent="1" source="Kn_A5P_9LUzbQNV3I4ui-1" target="Kn_A5P_9LUzbQNV3I4ui-2">
          <mxGeometry relative="1" as="geometry">
            <Array as="points" />
          </mxGeometry>
        </mxCell>
        <mxCell id="Kn_A5P_9LUzbQNV3I4ui-10" value="" style="curved=1;startArrow=none;endArrow=block;exitX=0.5;exitY=1;entryX=0.5;entryY=0;rounded=0;" edge="1" parent="1" source="Kn_A5P_9LUzbQNV3I4ui-2" target="Kn_A5P_9LUzbQNV3I4ui-3">
          <mxGeometry relative="1" as="geometry">
            <Array as="points" />
          </mxGeometry>
        </mxCell>
        <mxCell id="Kn_A5P_9LUzbQNV3I4ui-11" value="" style="curved=1;startArrow=none;endArrow=block;exitX=0.5;exitY=1;entryX=0.5;entryY=0;rounded=0;" edge="1" parent="1" source="Kn_A5P_9LUzbQNV3I4ui-3" target="Kn_A5P_9LUzbQNV3I4ui-4">
          <mxGeometry relative="1" as="geometry">
            <Array as="points" />
          </mxGeometry>
        </mxCell>
        <mxCell id="Kn_A5P_9LUzbQNV3I4ui-12" value="" style="curved=1;startArrow=none;endArrow=block;exitX=0.5;exitY=1;entryX=0.5;entryY=0;rounded=0;" edge="1" parent="1" source="Kn_A5P_9LUzbQNV3I4ui-4" target="Kn_A5P_9LUzbQNV3I4ui-5">
          <mxGeometry relative="1" as="geometry">
            <Array as="points" />
          </mxGeometry>
        </mxCell>
        <mxCell id="Kn_A5P_9LUzbQNV3I4ui-13" value="" style="curved=1;startArrow=none;endArrow=block;exitX=0.5;exitY=1;entryX=0.5;entryY=0;rounded=0;" edge="1" parent="1" source="Kn_A5P_9LUzbQNV3I4ui-5" target="Kn_A5P_9LUzbQNV3I4ui-6">
          <mxGeometry relative="1" as="geometry">
            <Array as="points" />
          </mxGeometry>
        </mxCell>
        <mxCell id="Kn_A5P_9LUzbQNV3I4ui-14" value="" style="curved=1;startArrow=none;endArrow=block;exitX=0.5;exitY=1;entryX=0.5;entryY=0;rounded=0;" edge="1" parent="1" source="Kn_A5P_9LUzbQNV3I4ui-6" target="Kn_A5P_9LUzbQNV3I4ui-7">
          <mxGeometry relative="1" as="geometry">
            <Array as="points" />
          </mxGeometry>
        </mxCell>
        <mxCell id="Kn_A5P_9LUzbQNV3I4ui-15" value="" style="curved=1;startArrow=none;endArrow=block;exitX=0.5;exitY=1;entryX=0.5;entryY=0;rounded=0;" edge="1" parent="1" source="Kn_A5P_9LUzbQNV3I4ui-7" target="Kn_A5P_9LUzbQNV3I4ui-8">
          <mxGeometry relative="1" as="geometry">
            <Array as="points" />
          </mxGeometry>
        </mxCell>
      </root>
    </mxGraphModel>
  </diagram>
</mxfile>
